HIERARCHY
ROOT Hips
{
	OFFSET 0.00000 0.00000 0.00000
	CHANNELS 6 Xposition Yposition Zposition Yrotation Zrotation Xrotation 
	JOINT Lumbar
	{
		OFFSET 0 0 0
		CHANNELS 3 Zrotation Xrotation Yrotation
		JOINT Neck
		{
			OFFSET 0.00 0.2701 0.00
			CHANNELS 3 Zrotation Xrotation Yrotation
			End Site
			{
				OFFSET 0.00 0.1379 0.00
			}
		}
		JOINT RightShoulder
		{
			OFFSET 0.0119 0.2289 0.1181
			CHANNELS 3 Zrotation Xrotation Yrotation
			JOINT RightElbow
			{
				OFFSET 0.00 -0.1475 0.00
				CHANNELS 2 Zrotation Yrotation
				JOINT RightWrist
				{
					OFFSET 0.00 -0.1605 0.00
					CHANNELS 2 Zrotation Xrotation
					End Site
					{
						OFFSET 0.0040 -0.1068 0.0006
					}
				}
			}
		}
		JOINT LeftShoulder
		{
			OFFSET 0.0119 0.2289 -0.1181
			CHANNELS 3 Zrotation Xrotation Yrotation
			JOINT LeftElbow
			{
				OFFSET 0.00 -0.1475 0.00
				CHANNELS 2 Zrotation Yrotation
				JOINT LeftWrist
				{
					OFFSET 0.00 -0.1605 0.00
					CHANNELS 2 Zrotation Xrotation
					End Site
					{
						OFFSET 0.0040 -0.1068 -0.0006
					}
				}
			}
		}
	}
	JOINT RightHip
	{
		OFFSET 0.0316 -0.0424 0.0458
		CHANNELS 3 Zrotation Xrotation Yrotation
		JOINT RightKnee
		{
			OFFSET 0.00 -0.2438 0.00
			CHANNELS 1 Zrotation
			JOINT RightAnkle
			{
				OFFSET 0.00 -0.2449 0.00
				CHANNELS 3 Zrotation Xrotation Yrotation
				End Site
				{
					OFFSET 0.1237 -0.0542 0.0051
				}
			}
		}
	}
	JOINT LeftHip
	{
		OFFSET 0.0316 -0.0424 -0.0458
		CHANNELS 3 Zrotation Xrotation Yrotation
		JOINT LeftKnee
		{
			OFFSET 0.00 -0.2438 0.00
			CHANNELS 1 Zrotation
			JOINT LeftAnkle
			{
				OFFSET 0.00 -0.2449 0.00
				CHANNELS 3 Zrotation Xrotation Yrotation
				End Site
				{
					OFFSET 0.1237 -0.0542 -0.0051
				}
			}
		}
	}
}
MOTION
Frames: 11
Frame Time: 0.02
-0.76791 -0.00263 0.02693 -115.20401 -24.88318 -0.82946 37.58366 -0.36631 -7.65407 -2.8767 12.42578 -0.83079 5.94194 -12.66864 -34.27163 78.2766 86.24401 4.59228 -1.25554 -8.55041 13.58834 30.38403 93.02508 -90.99469 11.78673 1.29292 13.90779 9.85996 -7.57489 0.11601 15.63725 -6.16288 -1.34024 23.7642 18.93087 18.67576 -0.63733 -12.55463 -34.65456 -16.73059
-0.76566 -0.00266 0.0221 -113.90711 -25.12177 -0.82455 36.7456 -0.08407 -7.47041 -2.88346 12.14671 -0.83079 4.84237 -12.38777 -32.55451 79.12853 86.01433 4.23552 -1.24384 -8.889 13.41526 28.88724 93.71419 -90.99745 11.53279 1.24965 14.84547 9.99676 -7.56564 0.1222 15.76589 -8.02733 -2.17063 26.27041 18.68025 15.5607 -3.10413 -12.13008 -28.37786 -13.56649
-0.76296 -0.00273 0.0169 -112.53666 -25.38232 -0.83568 35.79247 0.25028 -7.26596 -2.99997 11.76452 -0.83079 3.67574 -12.348 -30.57877 79.85647 85.75667 3.85284 -1.23452 -9.06305 13.41458 27.10318 94.28213 -91.00797 11.28775 1.20361 15.88123 10.10552 -8.90655 0.11707 15.25289 -8.18316 -2.26745 29.17729 18.34723 11.87971 -6.29055 -11.40658 -20.39118 -9.54117
-0.76048 -0.00278 0.0119 -111.19927 -25.63325 -0.83953 34.91613 0.55632 -7.07022 -3.08661 11.40655 -0.83079 2.53985 -12.19097 -28.72627 80.64359 85.51556 3.48557 -1.22308 -9.30713 13.34622 25.45338 94.90299 -91.02012 11.04013 1.15759 16.88974 10.22085 -9.52908 0.0751 14.98895 -9.18852 -2.7436 31.85471 18.05558 8.55779 -9.12897 -10.84243 -13.4132 -6.02374
-0.75789 -0.00283 0.00672 -109.86013 -25.89155 -0.84259 33.92995 0.8844 -6.87937 -3.09099 11.13845 -0.83079 1.39523 -12.06258 -26.83044 81.44431 85.25667 3.09925 -1.21552 -9.57484 13.23468 23.77578 95.54338 -91.00994 10.78202 1.1163 17.84421 10.36101 -10.44957 0.20409 14.90787 -10.07925 -3.12159 34.75519 17.74288 4.79552 -12.06497 -10.18409 -5.45194 -2.01214
-0.75543 -0.00288 0.00185 -108.50836 -26.13659 -0.85155 33.14782 1.17746 -6.6729 -3.29012 10.66386 -0.83079 0.2559 -11.93257 -24.97205 82.17927 85.02895 2.74822 -1.2007 -9.75312 13.25196 22.09417 96.11234 -91.04773 10.54957 1.06485 18.92614 10.44269 -11.12895 -0.02151 14.2932 -10.72453 -3.48998 37.27413 17.45799 1.81914 -14.96072 -9.64855 0.86973 1.17599
-0.75346 -0.00293 -0.0021 -107.14115 -26.33695 -0.87116 32.95579 1.36726 -6.42674 -4.0215 9.60928 -0.83079 -0.85119 -11.74879 -23.26541 82.73921 84.89172 2.49662 -1.16461 -9.72165 13.59927 20.45157 96.48806 -91.22307 10.38497 0.98409 20.3509 10.37623 -10.77144 -1.24708 12.35278 -11.15997 -4.04906 38.68087 17.24666 1.15975 -17.61978 -9.53105 2.18837 1.85153
-0.75164 -0.00298 -0.00571 -105.76447 -26.52302 -0.89663 32.97417 1.51848 -6.16615 -4.94016 8.3587 -0.83079 -1.94815 -11.55457 -21.61081 83.23715 84.78732 2.28257 -1.12132 -9.60589 14.06691 18.82026 96.79884 -91.44508 10.24638 0.8936 21.89642 10.25061 -10.15248 -2.82497 9.9005 -11.37231 -4.60414 39.67953 17.07018 1.30912 -20.20066 -9.54571 1.80671 1.67296
-0.74975 -0.00304 -0.00944 -104.39102 -26.71531 -0.92053 32.89824 1.68319 -5.91226 -5.76029 7.21944 -0.83079 -3.05157 -11.35861 -19.94457 83.77586 84.66983 2.05489 -1.08184 -9.53014 14.46892 17.19825 97.15459 -91.64159 10.09741 0.80893 23.37281 10.14848 -9.69989 -4.22437 7.68564 -11.62545 -5.12242 40.83666 16.89428 1.08646 -22.78718 -9.49544 2.23993 1.9033
-0.74785 -0.00308 -0.01333 -103.0174 -26.90715 -0.94005 32.81305 1.86728 -5.65478 -6.64481 5.977 -0.83079 -4.15642 -11.1957 -18.21785 84.26 84.5442 1.81242 -1.0402 -9.44148 14.92418 15.50432 97.44192 -91.85732 9.94378 0.71835 24.90814 10.06098 -9.09052 -5.69826 5.42046 -12.07318 -5.77757 42.1228 16.64891 0.86975 -25.53664 -9.45546 2.55654 2.07693
-0.746 -0.00314 -0.01681 -101.64544 -27.09938 -0.97026 32.79815 2.00056 -5.40448 -7.43336 4.91131 -0.83079 -5.24644 -10.9617 -16.63344 84.84157 84.44293 1.60916 -1.00125 -9.3619 15.29356 13.96764 97.85684 -92.04291 9.80446 0.63767 26.35426 9.92767 -8.72924 -7.10498 3.15659 -12.09051 -6.15876 43.03708 16.55411 0.8314 -27.90424 -9.42923 2.68799 2.15365
